<svg id="Betty_Block" data-name="Betty Block" xmlns="http://www.w3.org/2000/svg" xmlns:xlink="http://www.w3.org/1999/xlink" width="400" height="77.533" viewBox="0 0 400 77.533">
  <defs>
    <clipPath id="clip-path">
      <path id="Path_107989" data-name="Path 107989" d="M59.929,17.213v7.643h2.962q5.051,0,5.051-3.987a3.046,3.046,0,0,0-1.359-2.823,8.62,8.62,0,0,0-4.324-.832h-2.33Zm7.7,20.812a3.608,3.608,0,0,0,1.628-3.441q0-4.557-5.83-4.556h-3.5v8.921h2.914A9.873,9.873,0,0,0,67.628,38.026ZM75.354,29.6a6.727,6.727,0,0,1,2.113,5.41q0,5.267-3.863,7.426T62.794,44.6H47.777v-1.4a4.139,4.139,0,0,1,4.185-4.09V18.751l5.583-1.525H51.962v-.012a4.129,4.129,0,0,1-4.185-4.078V11.721l13.709-.01q7.086,0,10.83,1.972a6.721,6.721,0,0,1,3.741,6.425,6.341,6.341,0,0,1-1.774,4.678,8.957,8.957,0,0,1-4.395,2.4A11.448,11.448,0,0,1,75.354,29.6Zm16.864-6.547a4.884,4.884,0,0,0-3.585,1.271,5.724,5.724,0,0,0-1.352,2.255,1.068,1.068,0,0,0,1.02,1.413H96.91a6.765,6.765,0,0,0-.246-1.818,4.375,4.375,0,0,0-.8-1.571,4.115,4.115,0,0,0-1.457-1.122A5.115,5.115,0,0,0,92.218,23.055Zm10.388,15.461,1.323,1.6a11.76,11.76,0,0,1-2.67,2.257,14.133,14.133,0,0,1-2.94,1.362,15.947,15.947,0,0,1-3.019.678,23.471,23.471,0,0,1-2.875.19c-.12,0-.242,0-.361,0A15.244,15.244,0,0,1,87.15,43.7a12.168,12.168,0,0,1-4.3-2.657,12.529,12.529,0,0,1-2.916-4.385,16.071,16.071,0,0,1-1.071-6.1,13.516,13.516,0,0,1,.915-4.961A12.149,12.149,0,0,1,82.4,21.494a12.576,12.576,0,0,1,4.153-2.8,15.139,15.139,0,0,1,10.366-.227,10.4,10.4,0,0,1,6.269,6.11,13.568,13.568,0,0,1,.891,5.054A10.822,10.822,0,0,1,104,31.069a2.255,2.255,0,0,1-.283.881,1.065,1.065,0,0,1-.554.451,2.614,2.614,0,0,1-.891.129H88.323A1.094,1.094,0,0,0,87.262,33.8a5.257,5.257,0,0,0,1.63,3.475A5.768,5.768,0,0,0,91.9,38.66a8.153,8.153,0,0,0,1.245.093,7.83,7.83,0,0,0,2.4-.327,12.4,12.4,0,0,0,1.791-.732c.144-.071.283-.144.417-.215l0,.007a4.068,4.068,0,0,1,4.856,1.03h-.007Zm20.647,1.923,1.237,1.891a11.093,11.093,0,0,1-3.482,1.7,14.074,14.074,0,0,1-4,.571,9.7,9.7,0,0,1-3.365-.542,6.75,6.75,0,0,1-2.45-1.537,6.527,6.527,0,0,1-1.508-2.408,9.111,9.111,0,0,1-.515-3.148V23.455H106.9a1.533,1.533,0,0,1-1.057-.388,1.454,1.454,0,0,1-.439-1.147v-2a1.279,1.279,0,0,1,1.035-1.245l2.43-.461a1.259,1.259,0,0,0,.986-.93l1.379-5.6a1.585,1.585,0,0,1,1.752-1.208h4.178v7.635h6.5v3.912a1.447,1.447,0,0,1-1.464,1.428h-5.034V36.435a2.4,2.4,0,0,0,.451,1.5,1.533,1.533,0,0,0,1.3.593,3.272,3.272,0,0,0,.459-.029l.408-.02A4.015,4.015,0,0,1,123.252,40.439Zm19.526,0,1.237,1.891a11.093,11.093,0,0,1-3.482,1.7,14.061,14.061,0,0,1-4,.571,9.685,9.685,0,0,1-3.365-.542,6.7,6.7,0,0,1-2.448-1.537,6.564,6.564,0,0,1-1.51-2.408,9.111,9.111,0,0,1-.515-3.148V23.455h-2.269a1.539,1.539,0,0,1-1.059-.388,1.453,1.453,0,0,1-.437-1.147v-2a1.279,1.279,0,0,1,1.035-1.245l2.43-.461a1.265,1.265,0,0,0,.986-.93l1.376-5.6a1.587,1.587,0,0,1,1.752-1.208h4.178v7.635h6.5v3.912a1.445,1.445,0,0,1-1.464,1.428h-5.037V36.435a2.386,2.386,0,0,0,.454,1.5,1.529,1.529,0,0,0,1.3.593,3.272,3.272,0,0,0,.459-.029l.408-.02A4.016,4.016,0,0,1,142.779,40.439ZM159.875,54c-1.474,4.812-7.518,3.214-9.08,2.833-.808-.2-1.589-.429-2.347-.676l-.132-7.45a12.09,12.09,0,0,0,1.55.527,7.143,7.143,0,0,0,1.645.224,2.166,2.166,0,0,0,1.545-.53,2.575,2.575,0,0,0,.544-1.193,2.153,2.153,0,0,0-.059-1.12l-9.08-28.445h6.847a2.31,2.31,0,0,1,2.206,1.581l4.519,15.6,4.544-15.6a2.3,2.3,0,0,1,2.2-1.579h6.8Zm41.713-36.791v7.643h2.96q5.051,0,5.054-3.987a3.046,3.046,0,0,0-1.359-2.823,8.62,8.62,0,0,0-4.324-.832h-2.33Zm7.7,20.812a3.608,3.608,0,0,0,1.628-3.441q0-4.557-5.827-4.556h-3.5v8.921H204.5A9.867,9.867,0,0,0,209.284,38.026Zm7.723-8.424a6.727,6.727,0,0,1,2.113,5.41q0,5.267-3.863,7.426t-10.81,2.16H189.431v-1.4a4.139,4.139,0,0,1,4.185-4.09V18.751l5.581-1.525h-5.581v-.012a4.128,4.128,0,0,1-4.185-4.078V11.721l13.707-.01q7.09,0,10.832,1.972a6.721,6.721,0,0,1,3.741,6.425,6.339,6.339,0,0,1-1.772,4.678,8.964,8.964,0,0,1-4.4,2.4A11.426,11.426,0,0,1,217.007,29.6ZM229.85,7.887V44.6h-8.116V11.921a4.08,4.08,0,0,1,4.129-4.034ZM245.5,38.8a4.582,4.582,0,0,0,4.063-1.9,10.347,10.347,0,0,0,1.3-5.783,10.276,10.276,0,0,0-1.3-5.769A4.592,4.592,0,0,0,245.5,23.46a4.706,4.706,0,0,0-4.153,1.889,10.206,10.206,0,0,0-1.315,5.769,10.276,10.276,0,0,0,1.315,5.783A4.693,4.693,0,0,0,245.5,38.8Zm0-21.142a15.807,15.807,0,0,1,5.544.932,12.3,12.3,0,0,1,4.295,2.672,12.018,12.018,0,0,1,2.787,4.219,14.94,14.94,0,0,1,.991,5.581,15.186,15.186,0,0,1-.991,5.632,12.091,12.091,0,0,1-2.787,4.261,12.286,12.286,0,0,1-4.295,2.7,15.586,15.586,0,0,1-5.544.944,15.781,15.781,0,0,1-5.586-.944,12.488,12.488,0,0,1-4.331-2.7,11.917,11.917,0,0,1-2.811-4.261,15.186,15.186,0,0,1-1-5.632,14.939,14.939,0,0,1,1-5.581,11.814,11.814,0,0,1,2.811-4.219,12.506,12.506,0,0,1,4.331-2.672A16.014,16.014,0,0,1,245.5,17.662Zm38.057,23.1a12.144,12.144,0,0,1-1.986,1.606,13.325,13.325,0,0,1-2.8,1.362,14.82,14.82,0,0,1-2.877.678,21.535,21.535,0,0,1-2.811.19,12.3,12.3,0,0,1-4.68-.908,11.509,11.509,0,0,1-3.921-2.633,12.574,12.574,0,0,1-2.682-4.246,15.588,15.588,0,0,1-.993-5.747,15.782,15.782,0,0,1,.864-5.276A11.61,11.61,0,0,1,268.4,18.7a14.943,14.943,0,0,1,5.764-1.035,14.267,14.267,0,0,1,5.517.986,13.082,13.082,0,0,1,3.9,2.509,3.832,3.832,0,0,1-.615,1.65,4.062,4.062,0,0,1-5.181,1.345,8.845,8.845,0,0,0-1.123-.464,6.018,6.018,0,0,0-1.984-.281,5.672,5.672,0,0,0-2.543.53,4.677,4.677,0,0,0-1.767,1.513,6.817,6.817,0,0,0-1.032,2.406A14.1,14.1,0,0,0,269,31.066a9.627,9.627,0,0,0,1.484,5.774,4.8,4.8,0,0,0,4.09,2.013,5.885,5.885,0,0,0,2.2-.337A7.345,7.345,0,0,0,277.79,38a4.216,4.216,0,0,1,1.833-.415A3.978,3.978,0,0,1,283.554,40.764ZM301.97,28.846A1.875,1.875,0,0,0,301.838,31l8.394,13.516h-7.206a3.608,3.608,0,0,1-3.077-1.7L294.9,34.729a.878.878,0,0,0-1.625.439V44.6h-7.994V11.635a3.756,3.756,0,0,1,3.8-3.712h4.195V25.647a.878.878,0,0,0,1.572.515l5.493-7.145a3.625,3.625,0,0,1,2.833-1.354h7.677Zm8.106,12.77a4.008,4.008,0,0,1,4.041-3.751,4.128,4.128,0,0,1,1.974.5c.127.073.256.144.388.215a10.077,10.077,0,0,0,1.53.666,6.813,6.813,0,0,0,2.208.305,5.756,5.756,0,0,0,1.593-.19,2.9,2.9,0,0,0,1.047-.522,2.1,2.1,0,0,0,.573-.739,2.058,2.058,0,0,0,.183-.847,1.7,1.7,0,0,0-.549-1.3,4.789,4.789,0,0,0-1.437-.878,17.744,17.744,0,0,0-2.025-.691c-.759-.212-1.528-.456-2.313-.73a19.048,19.048,0,0,1-2.313-.981,8.006,8.006,0,0,1-2.025-1.454,6.8,6.8,0,0,1-1.435-2.157,7.807,7.807,0,0,1-.549-3.089,7.894,7.894,0,0,1,.666-3.2,7.43,7.43,0,0,1,2-2.667,9.834,9.834,0,0,1,3.346-1.825,14.752,14.752,0,0,1,4.7-.676,15.633,15.633,0,0,1,2.836.254,14.62,14.62,0,0,1,2.574.715,12.687,12.687,0,0,1,2.2,1.083,10.456,10.456,0,0,1,1.74,1.367,4.033,4.033,0,0,1-4.007,3.309,4.088,4.088,0,0,1-1.6-.322c-.059-.024-.115-.049-.173-.076a14.02,14.02,0,0,0-1.5-.522,6.8,6.8,0,0,0-1.908-.244,4.135,4.135,0,0,0-2.367.573,1.841,1.841,0,0,0-.82,1.6,1.579,1.579,0,0,0,.534,1.227,4.979,4.979,0,0,0,1.423.854,19.722,19.722,0,0,0,2.013.7c.747.222,1.515.469,2.3.742a20.727,20.727,0,0,1,2.3.959,8.433,8.433,0,0,1,2.013,1.352,6.035,6.035,0,0,1,1.423,1.95,6.475,6.475,0,0,1,.537,2.76,8.98,8.98,0,0,1-.73,3.626,7.733,7.733,0,0,1-2.184,2.857,10.323,10.323,0,0,1-3.58,1.862,16.425,16.425,0,0,1-4.9.666,15.2,15.2,0,0,1-2.77-.259,19.273,19.273,0,0,1-2.682-.688,14.65,14.65,0,0,1-2.389-1.032A10.363,10.363,0,0,1,310.077,41.615Z" transform="translate(-47.777 -7.887)" fill="#e9004c"/>
    </clipPath>
    <clipPath id="clip-path-2">
      <rect id="Rectangle_30372" data-name="Rectangle 30372" width="3514" height="313" transform="translate(0.086 -0.273)" fill="#e9004c"/>
    </clipPath>
  </defs>
  <g id="Group_30685" data-name="Group 30685" transform="translate(116.585 19.246)">
    <g id="Group_30684" data-name="Group 30684" clip-path="url(#clip-path)">
      <g id="Group_30683" data-name="Group 30683" transform="translate(-194.672 -111.973)" clip-path="url(#clip-path-2)">
        <rect id="Rectangle_30371" data-name="Rectangle 30371" width="307.817" height="73.914" transform="translate(182.471 99.772)" fill="#e9004c"/>
      </g>
    </g>
  </g>
  <path id="Path_107990" data-name="Path 107990" d="M60.427,40.246a11.714,11.714,0,0,0-5.6-2.479,9.171,9.171,0,0,0,4.5-2.452,6.49,6.49,0,0,0,1.816-4.79,6.892,6.892,0,0,0-3.831-6.586q-3.832-2.017-11.1-2.016l-14.038.007v1.452a4.23,4.23,0,0,0,4.285,4.178v.01h5.72l-5.72,1.567V49.98a4.238,4.238,0,0,0-4.285,4.19v1.44H47.567q7.116,0,11.069-2.213t3.958-7.606A6.905,6.905,0,0,0,60.427,40.246ZM44.629,27.56h2.389a8.808,8.808,0,0,1,4.429.852,3.118,3.118,0,0,1,1.393,2.894q0,4.081-5.176,4.08H44.629Zm7.887,21.315a10.08,10.08,0,0,1-4.9.949H44.629V40.685h3.582q5.97,0,5.971,4.666A3.693,3.693,0,0,1,52.516,48.875ZM50.742.537A6.821,6.821,0,0,0,45.466.525L4.483,17.4A6.944,6.944,0,0,0,0,23.428V54.114c0,2.623,2,4.993,4.47,6.025L44.922,77a7.08,7.08,0,0,0,5.388,0l40.3-16.862a6.564,6.564,0,0,0,4.078-6.025V23.406a6.515,6.515,0,0,0-4.012-6.02Z" transform="translate(0 0)" fill="#e9004c" fill-rule="evenodd"/>
</svg>
