<svg xmlns="http://www.w3.org/2000/svg" width="1600" height="450" version="1.0" viewBox="0 0 1200 337.5"><defs><clipPath id="a"><path d="M1.648 46.625H247v243.95H1.648zm0 0"/></clipPath><clipPath id="b"><path d="M24.117 46.625h200.297c12.41 0 22.469 10.059 22.469 22.469v198.812c0 12.41-10.059 22.469-22.469 22.469H24.117c-12.41 0-22.469-10.059-22.469-22.469V69.094c0-12.41 10.059-22.469 22.47-22.469"/></clipPath><clipPath id="c"><path d="M47.438 179.605h64.832v64.833H47.438zm0 0"/></clipPath><clipPath id="d"><path d="M79.852 179.605c-17.903 0-32.415 14.512-32.415 32.415 0 17.902 14.512 32.417 32.415 32.417 17.906 0 32.418-14.515 32.418-32.417 0-17.903-14.512-32.415-32.418-32.415"/></clipPath></defs><path fill="#050038" d="M348.326 85.231h50.516c15.257 0 27.425 3.258 36.5 9.766 9.082 6.512 13.625 17.07 13.625 31.672 0 16.312-6.778 27.953-20.329 34.922 23.145 4.086 34.72 17.765 34.72 41.047 0 13.687-4.735 24.68-14.204 32.968-9.469 8.282-22.492 12.422-39.062 12.422h-61.766zm37.094 63.735h2.953c8.289 0 14.473-1.442 18.547-4.328 4.082-2.895 6.125-7.633 6.125-14.219 0-11.05-8.227-16.578-24.672-16.578h-2.953zm0 70.453h11.64c18.157 0 27.235-6.05 27.235-18.156 0-7.239-2.274-12.438-6.813-15.594-4.531-3.156-11.34-4.734-20.422-4.734h-11.64zm127.28-72.625v48.156c0 10 1.509 17.106 4.532 21.313 3.031 4.21 8.16 6.312 15.39 6.312 7.239 0 12.368-2.101 15.391-6.312 3.031-4.207 4.547-11.313 4.547-21.313v-48.156h34.922v56.64c0 16.837-4.375 28.97-13.125 36.407-8.742 7.43-22.652 11.14-41.734 11.14-19.075 0-32.985-3.71-41.735-11.14-8.75-7.438-13.125-19.57-13.125-36.406v-56.641zm200.683 12.641c9.47 10.386 14.204 23.078 14.204 38.078 0 15-4.735 27.664-14.204 37.984-9.468 10.324-21.507 15.484-36.109 15.484-13.418 0-24.469-4.796-33.156-14.39h-.39v11.437h-34.532V78.325h34.922v78.14c8.687-8.413 19.738-12.624 33.156-12.624 14.602 0 26.64 5.2 36.11 15.594zm-29.406 55.14c4.344-4.406 6.516-10.094 6.516-17.062 0-6.969-2.274-12.688-6.813-17.157-4.543-4.476-10.168-6.718-16.875-6.718-6.574 0-12.133 2.242-16.672 6.718-4.53 4.47-6.796 10.188-6.796 17.157 0 6.843 2.203 12.5 6.609 16.968 4.406 4.47 10.023 6.704 16.86 6.704 7.1 0 12.827-2.204 17.171-6.61zm164.183-55.14c9.468 10.386 14.203 23.078 14.203 38.078 0 15-4.735 27.664-14.203 37.984-9.47 10.324-21.508 15.484-36.11 15.484-13.418 0-24.469-4.796-33.156-14.39h-.39v11.437h-34.532V78.325h34.922v78.14c8.687-8.413 19.738-12.624 33.156-12.624 14.602 0 26.64 5.2 36.11 15.594zm-29.407 55.14c4.344-4.406 6.516-10.094 6.516-17.062 0-6.969-2.273-12.688-6.813-17.157-4.543-4.476-10.168-6.718-16.875-6.718-6.574 0-12.132 2.242-16.671 6.718-4.532 4.47-6.797 10.188-6.797 17.157 0 6.843 2.203 12.5 6.61 16.968 4.405 4.47 10.023 6.704 16.858 6.704 7.102 0 12.829-2.204 17.172-6.61zm59.995 33.453V78.325h34.922v169.703zm161.013-45.781h-73.406c0 7.106 2.301 12.371 6.906 15.797 4.602 3.418 9.602 5.125 15 5.125 5.657 0 10.13-.754 13.422-2.266 3.29-1.52 7.04-4.515 11.25-8.984l25.25 12.625c-10.523 17.625-28.015 26.437-52.484 26.437-15.262 0-28.356-5.226-39.281-15.687-10.918-10.457-16.375-23.05-16.375-37.781 0-14.727 5.457-27.352 16.375-37.875 10.925-10.532 24.02-15.797 39.28-15.797 16.052 0 29.11 4.64 39.173 13.922 10.062 9.273 15.094 22.523 15.094 39.75 0 2.367-.07 3.945-.204 4.734zm-72.421-19.344h38.484c-.793-5.257-2.867-9.3-6.219-12.125-3.355-2.832-7.664-4.25-12.922-4.25-5.793 0-10.398 1.516-13.812 4.547-3.418 3.024-5.262 6.965-5.531 11.828zm133.005-39.063c5.79 0 11.516.657 17.172 1.97 5.656 1.312 9.863 2.632 12.625 3.953l4.14 1.968-11.437 22.891c-7.898-4.207-15.398-6.312-22.5-6.312-3.95 0-6.746.43-8.39 1.28-1.649.856-2.47 2.466-2.47 4.829 0 .531.067 1.062.204 1.594.133.523.394 1.011.781 1.468.395.461.758.856 1.094 1.188.332.324.89.684 1.672 1.078.789.399 1.414.695 1.875.89.468.2 1.226.497 2.28.891 1.052.399 1.837.696 2.36.891.532.2 1.422.496 2.672.89 1.25.4 2.203.657 2.86.782 4.07 1.187 7.617 2.508 10.64 3.953 3.031 1.45 6.223 3.422 9.578 5.922 3.352 2.5 5.953 5.656 7.797 9.469 1.844 3.812 2.766 8.152 2.766 13.015 0 23.024-15.985 34.531-47.953 34.531-7.243 0-14.118-1.117-20.625-3.343-6.512-2.239-11.215-4.477-14.11-6.719l-4.343-3.547 14.218-23.875c1.051.918 2.43 2 4.14 3.25 1.708 1.25 4.798 2.965 9.267 5.14 4.476 2.169 8.363 3.25 11.656 3.25 7.226 0 10.844-2.429 10.844-7.296 0-2.238-.922-3.985-2.766-5.235-1.836-1.25-4.961-2.66-9.375-4.234-4.406-1.582-7.856-3.031-10.344-4.344-6.324-3.289-11.328-7.007-15.015-11.156-3.68-4.144-5.516-9.633-5.516-16.469 0-10.257 3.976-18.25 11.937-23.968 7.957-5.727 18.711-8.594 32.266-8.594zm75.571 61.954c6.32 0 11.687 2.21 16.093 6.625 4.407 4.406 6.61 9.766 6.61 16.078 0 6.18-2.203 11.469-6.61 15.875-4.406 4.406-9.773 6.61-16.093 6.61-6.18 0-11.47-2.204-15.875-6.61-4.407-4.406-6.61-9.695-6.61-15.875 0-6.312 2.203-11.672 6.61-16.078 4.406-4.414 9.695-6.625 15.875-6.625zm0 0"/><g clip-path="url(#a)"><g clip-path="url(#b)"><path fill="#e7e7fd" d="M1.648 46.625H246.82v243.95H1.648zm0 0"/></g></g><path fill="#504de5" d="M102.21 190.445a31.302 31.302 0 0 1 2.052 2.262 30.138 30.138 0 0 1 1.816 2.453 30.963 30.963 0 0 1 2.875 5.379 31.08 31.08 0 0 1 1.774 5.836c.199 1 .347 2.004.445 3.02a30.621 30.621 0 0 1 0 6.097 30.316 30.316 0 0 1-.445 3.024c-.2.996-.446 1.984-.743 2.96a31.494 31.494 0 0 1-2.336 5.633 31.196 31.196 0 0 1-3.386 5.07 32.212 32.212 0 0 1-2.051 2.266 33.047 33.047 0 0 1-2.262 2.051 31.51 31.51 0 0 1-2.453 1.816 31.127 31.127 0 0 1-2.617 1.57 31.776 31.776 0 0 1-5.637 2.337c-.976.293-1.96.543-2.96.738a30.617 30.617 0 0 1-6.07.598 30.617 30.617 0 0 1-6.071-.598c-1-.195-1.985-.445-2.961-.738a31.08 31.08 0 0 1-2.875-1.031 31.244 31.244 0 0 1-2.762-1.305 31.127 31.127 0 0 1-2.617-1.57 31.822 31.822 0 0 1-2.453-1.817 31.302 31.302 0 0 1-2.262-2.05 32.212 32.212 0 0 1-2.05-2.266 31.064 31.064 0 0 1-1.821-2.45 32.236 32.236 0 0 1-1.567-2.62 31.206 31.206 0 0 1-1.308-2.758 31.243 31.243 0 0 1-2.219-8.86 31.695 31.695 0 0 1-.148-3.047c0-1.02.05-2.035.148-3.05a31.431 31.431 0 0 1 1.191-5.98c.297-.977.641-1.935 1.028-2.876.39-.941.828-1.863 1.308-2.762a31.129 31.129 0 0 1 5.438-7.332 29.58 29.58 0 0 1 2.262-2.05 31.127 31.127 0 0 1 5.07-3.39 31.245 31.245 0 0 1 8.598-3.075c1-.2 2.007-.348 3.02-.45a31.838 31.838 0 0 1 3.05-.148c1.02 0 2.035.05 3.05.148 1.012.102 2.02.25 3.02.45a31.054 31.054 0 0 1 15.93 8.516zm88 0a30.366 30.366 0 0 1 2.048 2.262 31.127 31.127 0 0 1 3.39 5.07 31.245 31.245 0 0 1 3.075 8.598 30.617 30.617 0 0 1 .598 6.07c0 1.02-.048 2.035-.15 3.047a31.242 31.242 0 0 1-3.523 11.617 31.196 31.196 0 0 1-1.57 2.621 30.12 30.12 0 0 1-1.82 2.45 31.223 31.223 0 0 1-2.047 2.265 32.212 32.212 0 0 1-2.266 2.051 31.018 31.018 0 0 1-7.828 4.691c-.941.391-1.902.735-2.875 1.032-.976.293-1.965.543-2.965.738a30.54 30.54 0 0 1-6.066.598 30.617 30.617 0 0 1-6.07-.598 30.64 30.64 0 0 1-5.836-1.77 31.244 31.244 0 0 1-2.762-1.304 30.513 30.513 0 0 1-2.617-1.57 31.082 31.082 0 0 1-2.453-1.817 31.302 31.302 0 0 1-2.262-2.05 30.394 30.394 0 0 1-2.05-2.266 30.12 30.12 0 0 1-1.821-2.45 31.196 31.196 0 0 1-3.903-8.253 31.243 31.243 0 0 1-1.19-5.985 31.695 31.695 0 0 1-.15-3.047c0-1.02.051-2.035.15-3.05a31.431 31.431 0 0 1 1.19-5.98 31.245 31.245 0 0 1 2.332-5.637 31.127 31.127 0 0 1 3.391-5.071 29.58 29.58 0 0 1 2.05-2.262 29.58 29.58 0 0 1 2.263-2.05 30.183 30.183 0 0 1 2.453-1.82 30.514 30.514 0 0 1 2.617-1.571 31.245 31.245 0 0 1 8.598-3.074c1-.2 2.004-.348 3.02-.45a31.838 31.838 0 0 1 3.05-.148c1.016 0 2.035.05 3.047.148a31.25 31.25 0 0 1 11.617 3.524 31.3 31.3 0 0 1 2.621 1.57 30.12 30.12 0 0 1 2.45 1.82 30.923 30.923 0 0 1 2.265 2.051zm9.11-66a30.617 30.617 0 0 1-.597 6.07c-.2 1-.446 1.985-.743 2.962a31.245 31.245 0 0 1-2.332 5.637 31.128 31.128 0 0 1-3.39 5.07 31.164 31.164 0 0 1-2.047 2.261 32.212 32.212 0 0 1-2.266 2.051 31.064 31.064 0 0 1-2.449 1.82 32.236 32.236 0 0 1-2.621 1.567c-.898.48-1.816.918-2.758 1.308a31.024 31.024 0 0 1-8.86 2.215 30.544 30.544 0 0 1-6.097 0 30.658 30.658 0 0 1-5.98-1.188 32.237 32.237 0 0 1-2.875-1.027 31.51 31.51 0 0 1-5.379-2.875 31.129 31.129 0 0 1-8.586-8.586 31.128 31.128 0 0 1-1.57-2.617 31.244 31.244 0 0 1-3.075-8.597 31.82 31.82 0 0 1-.449-3.02 31.838 31.838 0 0 1-.148-3.05c0-1.02.05-2.036.148-3.051a31.505 31.505 0 0 1 1.192-5.98 31.245 31.245 0 0 1 2.332-5.637 31.127 31.127 0 0 1 5.44-7.333 31.302 31.302 0 0 1 2.263-2.05 30.137 30.137 0 0 1 2.453-1.817 31.279 31.279 0 0 1 5.379-2.879c.941-.386 1.898-.73 2.875-1.027a30.658 30.658 0 0 1 5.98-1.188 30.621 30.621 0 0 1 6.098 0 31.024 31.024 0 0 1 14.238 5.094 30.075 30.075 0 0 1 2.45 1.817 32.587 32.587 0 0 1 2.265 2.05 31.164 31.164 0 0 1 3.867 4.715c.567.848 1.09 1.719 1.57 2.617a31.245 31.245 0 0 1 3.075 8.598 30.617 30.617 0 0 1 .598 6.07zm0 0"/><path fill="#504de5" d="M190.184 190.48h-44.008c5.648-5.632 9.148-13.425 9.148-22.035s-3.5-16.402-9.148-22.035h44.008v.059a31.013 31.013 0 0 0-9.086 21.976c0 8.578 3.468 16.344 9.086 21.973zm-87.974-88.035a30.832 30.832 0 0 1 3.867 4.715 30.711 30.711 0 0 1 2.876 5.379 31.08 31.08 0 0 1 1.774 5.836c.199 1 .347 2.008.445 3.02a30.621 30.621 0 0 1 0 6.101 30.947 30.947 0 0 1-2.219 8.855 30.176 30.176 0 0 1-1.305 2.762 30.65 30.65 0 0 1-1.57 2.617 30.832 30.832 0 0 1-3.867 4.715 33.047 33.047 0 0 1-2.262 2.051 31.87 31.87 0 0 1-2.453 1.82 31.812 31.812 0 0 1-5.379 2.875c-.941.387-1.898.73-2.875 1.028a30.948 30.948 0 0 1-5.98 1.187 30.622 30.622 0 0 1-6.102 0 30.948 30.948 0 0 1-5.98-1.188 32.237 32.237 0 0 1-2.875-1.027 31.278 31.278 0 0 1-2.762-1.308 32.165 32.165 0 0 1-2.617-1.567 31.302 31.302 0 0 1-6.766-6.133 31.87 31.87 0 0 1-1.82-2.453 32.165 32.165 0 0 1-1.567-2.617c-.48-.898-.918-1.82-1.308-2.761a32.237 32.237 0 0 1-1.028-2.875 30.948 30.948 0 0 1-1.19-5.98 31.838 31.838 0 0 1-.15-3.052c0-1.02.051-2.035.15-3.05a30.948 30.948 0 0 1 1.191-5.98c.296-.978.64-1.935 1.027-2.876a31.365 31.365 0 0 1 2.875-5.379 31.87 31.87 0 0 1 1.82-2.453 31.302 31.302 0 0 1 4.313-4.313 30.832 30.832 0 0 1 2.453-1.816 31.128 31.128 0 0 1 8.254-3.906 30.947 30.947 0 0 1 5.98-1.188 30.621 30.621 0 0 1 6.102 0 30.947 30.947 0 0 1 5.98 1.188c.977.297 1.934.64 2.875 1.027a31.127 31.127 0 0 1 5.379 2.879 30.832 30.832 0 0 1 2.453 1.817c.785.648 1.54 1.332 2.262 2.05zm0 0"/><path fill="#504de5" d="M102.21 102.445a30.832 30.832 0 0 1 3.867 4.715 30.711 30.711 0 0 1 2.876 5.379 31.08 31.08 0 0 1 1.774 5.836c.199 1 .347 2.008.445 3.02a30.621 30.621 0 0 1 0 6.101 30.947 30.947 0 0 1-2.219 8.855 30.176 30.176 0 0 1-1.305 2.762 30.65 30.65 0 0 1-1.57 2.617 30.832 30.832 0 0 1-3.867 4.715 33.047 33.047 0 0 1-2.262 2.051 31.87 31.87 0 0 1-2.453 1.82 31.812 31.812 0 0 1-5.379 2.875c-.941.387-1.898.73-2.875 1.028a30.948 30.948 0 0 1-5.98 1.187 30.622 30.622 0 0 1-6.102 0 30.948 30.948 0 0 1-5.98-1.188 32.237 32.237 0 0 1-2.875-1.027 31.278 31.278 0 0 1-2.762-1.308 32.165 32.165 0 0 1-2.617-1.567 31.302 31.302 0 0 1-6.766-6.133 31.87 31.87 0 0 1-1.82-2.453 32.165 32.165 0 0 1-1.567-2.617c-.48-.898-.918-1.82-1.308-2.761a32.237 32.237 0 0 1-1.028-2.875 30.948 30.948 0 0 1-1.19-5.98 31.838 31.838 0 0 1-.15-3.052c0-1.02.051-2.035.15-3.05a30.948 30.948 0 0 1 1.191-5.98c.296-.978.64-1.935 1.027-2.876a31.365 31.365 0 0 1 2.875-5.379 31.87 31.87 0 0 1 1.82-2.453 31.302 31.302 0 0 1 4.313-4.313 30.832 30.832 0 0 1 2.453-1.816 31.128 31.128 0 0 1 8.254-3.906 30.947 30.947 0 0 1 5.98-1.188 30.621 30.621 0 0 1 6.102 0 30.947 30.947 0 0 1 5.98 1.188c.977.297 1.934.64 2.875 1.027a31.127 31.127 0 0 1 5.379 2.879 30.832 30.832 0 0 1 2.453 1.817c.785.648 1.54 1.332 2.262 2.05zm0 0"/><path fill="#504de5" d="M102.176 146.418V102.41c5.633 5.653 13.426 9.149 22.035 9.149 8.61 0 16.402-3.496 22.035-9.149v44.008h-.062c-5.63-5.613-13.395-9.086-21.973-9.086s-16.348 3.473-21.977 9.086zm0 0"/><g clip-path="url(#c)"><g clip-path="url(#d)"><path fill="#05e1ff" d="M47.438 179.605h64.832v64.833H47.438zm0 0"/></g></g></svg>