<svg xmlns="http://www.w3.org/2000/svg" width="128" height="32" fill="none"><g fill="#2C5C6C" clip-path="url(#a)"><path d="M127.847 13.806h-13.318a.152.152 0 0 0-.153.15v2.26c0 .082.069.15.153.15h13.318a.152.152 0 0 0 .153-.15v-2.26a.152.152 0 0 0-.153-.15ZM122.008 0h-1.639a.523.523 0 0 0-.459.275l-5.399 10.317a.125.125 0 0 0 .005.125.13.13 0 0 0 .11.06h2.326a.437.437 0 0 0 .382-.229l3.686-7.044a.187.187 0 0 1 .168-.101.193.193 0 0 1 .169.101l3.685 7.044a.434.434 0 0 0 .383.23h2.325a.13.13 0 0 0 .129-.123.125.125 0 0 0-.014-.063L122.467.275a.522.522 0 0 0-.459-.275ZM.153 4.78h13.642a.137.137 0 0 1 .115.038.132.132 0 0 1 .039.114v2.263a.132.132 0 0 1-.092.145.138.138 0 0 1-.062.006H3.065a.137.137 0 0 0-.115.037.133.133 0 0 0-.038.114v6.155a.131.131 0 0 0 .038.114.135.135 0 0 0 .115.037h9.473a.137.137 0 0 1 .148.09c.007.02.009.04.006.061v2.264a.132.132 0 0 1-.092.145.137.137 0 0 1-.062.005H3.065a.139.139 0 0 0-.114.038.133.133 0 0 0-.039.113v9.355a.132.132 0 0 1-.038.113.135.135 0 0 1-.115.038H.153a.137.137 0 0 1-.115-.038.132.132 0 0 1-.038-.113V4.932a.131.131 0 0 1 .038-.114.136.136 0 0 1 .115-.037Zm18.023 21.094a.132.132 0 0 1-.091.146.137.137 0 0 1-.062.005h-2.606a.138.138 0 0 1-.115-.038.132.132 0 0 1-.038-.113V4.932a.132.132 0 0 1 .09-.146.138.138 0 0 1 .063-.005h2.606a.138.138 0 0 1 .115.037.132.132 0 0 1 .038.114v20.942Zm18.142 0a.13.13 0 0 1-.038.113.135.135 0 0 1-.115.038H35.06c-1.574.02-2.586-.443-3.035-1.388-.04-.08-.087-.12-.138-.12a.195.195 0 0 0-.138.06 6.038 6.038 0 0 1-1.931 1.161 8.957 8.957 0 0 1-3.495.589c-2.064 0-3.608-.443-4.629-1.328a4.44 4.44 0 0 1-1.168-1.58 4.376 4.376 0 0 1-.365-1.92 4.035 4.035 0 0 1 .414-1.826 4.03 4.03 0 0 1 1.257-1.449 6.4 6.4 0 0 1 2.115-.965 11.26 11.26 0 0 1 2.959-.347h3.433c.51 0 .807-.086.89-.257a1.59 1.59 0 0 0 .122-.679 4.938 4.938 0 0 0-.108-.98 2.02 2.02 0 0 0-.508-.966 2.956 2.956 0 0 0-1.185-.724 6.54 6.54 0 0 0-2.17-.287c-1.333 0-2.293.266-2.878.8-.28.243-.503.542-.654.878a2.52 2.52 0 0 0-.223 1.068.13.13 0 0 1-.037.113.135.135 0 0 1-.114.038h-2.61a.136.136 0 0 1-.146-.09.131.131 0 0 1-.005-.061 4.72 4.72 0 0 1 .552-2.324 4.96 4.96 0 0 1 1.487-1.66 6.762 6.762 0 0 1 2.145-.995 9.412 9.412 0 0 1 2.499-.332c2.125 0 3.801.467 5.028 1.403 1.226.936 1.839 2.329 1.839 4.18v5.914c-.018.379.056.756.215 1.102.142.271.51.407 1.103.407h.583a.137.137 0 0 1 .147.09c.007.02.009.04.006.06v2.264Zm-4.966-6.548a.132.132 0 0 0-.039-.113.137.137 0 0 0-.114-.038h-4.292a8.526 8.526 0 0 0-1.978.287 3.665 3.665 0 0 0-1.165.543 1.56 1.56 0 0 0-.552.709c-.09.252-.136.517-.137.784-.001.279.05.555.153.815.116.281.3.53.536.725a2.8 2.8 0 0 0 .997.528 5.095 5.095 0 0 0 1.532.196 6.702 6.702 0 0 0 2.346-.362 4.386 4.386 0 0 0 1.563-.951c.38-.365.674-.808.858-1.298a4.66 4.66 0 0 0 .292-1.403v-.422Zm13.908 6.548a.132.132 0 0 1-.09.146.137.137 0 0 1-.063.005h-2.36c-1.288.04-2.28-.232-2.974-.815-.695-.583-1.042-1.498-1.042-2.746V13.17a.132.132 0 0 0-.039-.114.137.137 0 0 0-.114-.037h-2.729a.138.138 0 0 1-.115-.038.132.132 0 0 1-.038-.113v-1.961a.13.13 0 0 1 .038-.114.138.138 0 0 1 .115-.038h2.729a.137.137 0 0 0 .114-.037.132.132 0 0 0 .039-.113V6.53a.132.132 0 0 1 .091-.146.138.138 0 0 1 .062-.005h2.606a.138.138 0 0 1 .115.038.132.132 0 0 1 .038.113v4.074a.13.13 0 0 0 .038.113.136.136 0 0 0 .116.037h3.31a.137.137 0 0 1 .148.09.13.13 0 0 1 .005.062v1.96a.13.13 0 0 1-.038.114.136.136 0 0 1-.115.038h-3.31a.139.139 0 0 0-.116.037.132.132 0 0 0-.038.114v8.781c-.022.4.11.793.368 1.102.245.271.674.407 1.288.407h1.808a.139.139 0 0 1 .115.038.135.135 0 0 1 .038.113v2.263Zm3.924-15.119c.062 0 .113.05.154.152l.306 1.237c.041.1.093.14.154.12a.38.38 0 0 0 .153-.09c.239-.248.512-.462.812-.634.354-.208.722-.39 1.104-.543a8.545 8.545 0 0 1 1.242-.392 5.393 5.393 0 0 1 1.226-.151 7.697 7.697 0 0 1 3.035.573c.88.369 1.665.925 2.3 1.63a7.275 7.275 0 0 1 1.455 2.52 10.514 10.514 0 0 1 0 6.442 7.292 7.292 0 0 1-1.456 2.505 6.433 6.433 0 0 1-2.3 1.63 7.697 7.697 0 0 1-3.034.573 5.533 5.533 0 0 1-1.533-.212 7.955 7.955 0 0 1-2.315-1.07 2.875 2.875 0 0 1-.536-.438c-.082-.1-.153-.13-.215-.09a.18.18 0 0 0-.092.15v7.182a.131.131 0 0 1-.038.113.135.135 0 0 1-.115.038h-2.606a.136.136 0 0 1-.147-.09.13.13 0 0 1-.006-.06V10.906a.132.132 0 0 1 .091-.146.139.139 0 0 1 .062-.006h2.3Zm9.535 7.635c.008-.731-.1-1.46-.322-2.157a5.191 5.191 0 0 0-.92-1.706 4.013 4.013 0 0 0-1.471-1.116 4.783 4.783 0 0 0-1.978-.392 4.218 4.218 0 0 0-1.854.392 3.872 3.872 0 0 0-1.38 1.117 5.072 5.072 0 0 0-.858 1.705 8.138 8.138 0 0 0 0 4.315c.175.616.466 1.195.858 1.705.365.473.838.855 1.38 1.116a4.21 4.21 0 0 0 1.854.393 4.775 4.775 0 0 0 1.978-.393 4.007 4.007 0 0 0 1.471-1.116 5.186 5.186 0 0 0 .92-1.705c.221-.698.33-1.426.322-2.158Zm7.633 1.026a.139.139 0 0 0-.115.038.133.133 0 0 0-.039.113c0 .541.099 1.078.292 1.584.187.503.479.96.858 1.343.394.393.863.706 1.38.92a4.599 4.599 0 0 0 1.824.348c1.103 0 1.946-.201 2.529-.604a4.317 4.317 0 0 0 1.364-1.509.214.214 0 0 1 .215-.15h2.728c.123 0 .173.05.153.15a5.802 5.802 0 0 1-2.498 3.456 8.076 8.076 0 0 1-4.491 1.222 8.001 8.001 0 0 1-3.097-.574 6.513 6.513 0 0 1-2.345-1.63 7.343 7.343 0 0 1-1.487-2.504 9.476 9.476 0 0 1-.52-3.229c-.014-1.1.151-2.195.49-3.244a6.922 6.922 0 0 1 1.44-2.505 6.44 6.44 0 0 1 2.346-1.614 9.066 9.066 0 0 1 6.346 0 6.5 6.5 0 0 1 2.36 1.63 6.959 6.959 0 0 1 1.456 2.52c.337 1.038.502 2.123.49 3.213.006.295-.025.588-.091.875-.041.101-.092.151-.153.151H66.352Zm8.492-2.414a4.117 4.117 0 0 0-.246-1.343 3.844 3.844 0 0 0-.766-1.297 4.014 4.014 0 0 0-1.334-.966 4.6 4.6 0 0 0-1.946-.377 4.198 4.198 0 0 0-1.932.422 4.426 4.426 0 0 0-2.16 2.34 3.45 3.45 0 0 0-.262 1.221.132.132 0 0 0 .092.146c.02.006.041.008.062.005h8.338a.137.137 0 0 0 .115-.038.132.132 0 0 0 .039-.113Zm20.674 8.872a.132.132 0 0 1-.091.146.137.137 0 0 1-.062.005H94.26c-1.574.02-2.585-.443-3.035-1.388-.041-.08-.087-.12-.138-.12a.193.193 0 0 0-.138.06 6.038 6.038 0 0 1-1.931 1.161 8.957 8.957 0 0 1-3.495.589c-2.064 0-3.608-.443-4.63-1.328a4.439 4.439 0 0 1-1.167-1.58 4.375 4.375 0 0 1-.365-1.92 4.033 4.033 0 0 1 .414-1.826 4.031 4.031 0 0 1 1.257-1.449 6.402 6.402 0 0 1 2.115-.965 11.26 11.26 0 0 1 2.959-.347h3.433c.51 0 .807-.086.89-.257.09-.215.13-.447.122-.679a4.938 4.938 0 0 0-.108-.98 2.023 2.023 0 0 0-.508-.966 2.952 2.952 0 0 0-1.185-.724 6.54 6.54 0 0 0-2.17-.287c-1.334 0-2.293.266-2.878.8-.28.243-.503.543-.654.878a2.52 2.52 0 0 0-.223 1.068.13.13 0 0 1-.037.113.135.135 0 0 1-.115.038h-2.608a.136.136 0 0 1-.115-.038.132.132 0 0 1-.037-.113 4.72 4.72 0 0 1 .552-2.324 4.957 4.957 0 0 1 1.487-1.66 6.757 6.757 0 0 1 2.145-.995 9.41 9.41 0 0 1 2.5-.332c2.124 0 3.8.467 5.027 1.403 1.226.936 1.839 2.329 1.84 4.18v5.914c-.019.379.055.756.214 1.102.142.271.51.407 1.103.407h.583a.137.137 0 0 1 .147.09c.007.02.009.04.006.06v2.264Zm-4.966-6.548a.13.13 0 0 0-.039-.113.135.135 0 0 0-.115-.038h-4.291a8.526 8.526 0 0 0-1.978.287 3.663 3.663 0 0 0-1.165.543 1.56 1.56 0 0 0-.552.709c-.09.252-.137.517-.138.784 0 .279.052.555.154.815.116.281.3.53.536.725.292.24.631.42.996.528a5.094 5.094 0 0 0 1.533.196 6.7 6.7 0 0 0 2.345-.362 4.386 4.386 0 0 0 1.564-.951c.38-.365.674-.808.858-1.298.17-.45.268-.923.291-1.403v-.422Zm18.329 6.699a.306.306 0 0 1-.276-.15l-4.874-8.24c-.062-.08-.133-.08-.215 0l-3.495 2.958a.25.25 0 0 0-.06.181v5.1a.132.132 0 0 1-.092.146.137.137 0 0 1-.062.005H97.2a.138.138 0 0 1-.115-.038.132.132 0 0 1-.038-.113V4.932a.132.132 0 0 1 .091-.146.138.138 0 0 1 .062-.005h2.606a.137.137 0 0 1 .147.09.13.13 0 0 1 .006.06v11.83c0 .04.025.07.077.09a.12.12 0 0 0 .138-.03l7.051-5.914a.589.589 0 0 1 .276-.136c.061-.009.122-.014.184-.016h3.77a.154.154 0 0 1 .108.046c.03.03.025.065-.016.106l-5.702 4.768c-.061.06-.061.14 0 .24l5.917 9.96c.04.1 0 .15-.123.15h-2.759Z"/></g><defs><clipPath id="a"><path fill="#fff" d="M0 0h128v32H0z"/></clipPath></defs></svg>