<svg xmlns="http://www.w3.org/2000/svg" xmlns:xlink="http://www.w3.org/1999/xlink" width="208" height="209" viewBox="0 0 208 209">
  <defs>
    <filter id="NoPath_-_kopie_17_" x="0" y="0" width="208" height="209" filterUnits="userSpaceOnUse">
      <feOffset input="SourceAlpha"/>
      <feGaussianBlur stdDeviation="4" result="blur"/>
      <feFlood flood-opacity="0.161"/>
      <feComposite operator="in" in2="blur"/>
      <feComposite in="SourceGraphic"/>
    </filter>
  </defs>
  <g id="KLM" transform="translate(12 12)">
    <g transform="matrix(1, 0, 0, 1, -12, -12)" filter="url(#NoPath_-_kopie_17_)">
      <rect id="NoPath_-_kopie_17_2" data-name="NoPath - kopie (17)" width="184" height="185" rx="10" transform="translate(12 12)" fill="#fff"/>
    </g>
    <g id="KLM_logo" transform="translate(28.96 55.841)">
      <path id="Path_103" data-name="Path 103" d="M54.208,34.719c-.1-2.752-.054-5.511-.025-8.264,15.839.047,31.679.011,47.518.018q.005,4.112,0,8.217C85.868,34.708,70.036,34.654,54.208,34.719ZM75.678,0h3.955c.032,1.344.029,2.684.022,4.027,1.322,0,2.648,0,3.97-.007.011,1.318.011,2.637-.029,3.955-1.311,0-2.626.007-3.937,0,0,1.3,0,2.6.007,3.9-1.3.083-2.608.065-3.912.054-.007-1.318-.007-2.64-.014-3.963-1.326.018-2.648.011-3.97.014-.022-1.315-.018-2.633-.022-3.948,1.333,0,2.666-.007,3.995,0-.029-1.344.09-2.695-.065-4.031Zm32.884,17.866a6.889,6.889,0,1,1-6.889-6.889A6.889,6.889,0,0,1,108.562,17.866Zm-15.832,0a6.889,6.889,0,1,1-6.889-6.889A6.889,6.889,0,0,1,92.73,17.866Zm-15.832,0a6.889,6.889,0,1,1-6.889-6.889A6.889,6.889,0,0,1,76.9,17.866Zm-15.832,0a6.889,6.889,0,1,1-6.889-6.889A6.889,6.889,0,0,1,61.066,17.866Z" transform="translate(-14.885)" fill="#00a1e4"/>
      <path id="Path_104" data-name="Path 104" d="M74.434,60.837c6.585-.022,13.17.043,19.755-.032,2.079,5.652,3.9,11.4,5.861,17.1a3.051,3.051,0,0,0,.476-.771c1.877-5.436,3.8-10.857,5.692-16.29q9.932-.011,19.863,0V92.421c-4.053.05-8.109.018-12.161.018-.007-7.269.036-14.542-.022-21.815-.566.317-.623,1.034-.865,1.571-2.352,6.754-4.766,13.487-7.118,20.241-3.811,0-7.626.05-11.434-.025-2.388-6.906-4.859-13.779-7.269-20.674a1.218,1.218,0,0,0-.641-.847c-.011,7.183,0,14.37,0,21.556q-6.068,0-12.136,0Q74.441,76.643,74.434,60.837ZM0,60.837q6,0,12,0c.007,3.826-.007,7.655,0,11.484,3.966-3.8,7.842-7.684,11.808-11.48q6.046-.016,12.093,0c-4.647,4.723-9.42,9.323-14.031,14.078C27.684,80.555,33.3,86.4,39.157,91.971c.05-10.375.007-20.753.022-31.131q6.133-.011,12.266,0,0,11.806,0,23.613c6.531-.018,13.058.022,19.586-.022.09,2.669.014,5.342.043,8.011q-23.808,0-47.619-.007C19.7,88.635,15.9,84.885,12.125,81.1c-.054,3.786.007,7.568-.032,11.354-4.031-.029-8.062,0-12.093-.018Z" transform="translate(0 -19.14)" fill="#00a1e4"/>
    </g>
  </g>
</svg>
